<svg width="32" height="32" viewBox="0 0 32 32" fill="none" xmlns="http://www.w3.org/2000/svg">
<g filter="url(#filter0_d_1_709)">
<path d="M4.03711 0.133036L22.0478 10.5287L28.9817 14.5345C29.6323 14.9259 29.6376 15.8612 28.9918 16.2577L28.9613 16.2781L4.05227 30.6591L4.03182 30.6692C3.77775 30.8117 3.49817 30.8268 3.2542 30.7556C2.84758 30.6336 2.5271 30.2626 2.5271 29.7797V1.01749C2.5271 0.534599 2.84734 0.163592 3.2542 0.0416069C3.50322 -0.0298517 3.7828 -0.0144532 4.03711 0.133036Z" fill="#47BCFF"/>
<path d="M4.03707 0.13285L22.0478 10.5285L17.5235 15.3985L3.25415 0.0411811C3.50317 -0.030037 3.78275 -0.0146385 4.03707 0.13285Z" fill="#0BDF74"/>
<path d="M22.0477 10.5285L28.9816 14.5343C29.6322 14.9258 29.6375 15.861 28.9917 16.2575L28.9612 16.2779L22.0477 20.2633L17.5234 15.3985L22.0477 10.5285Z" fill="#FDBA21"/>
<path d="M17.5235 15.3985L22.0478 20.2635L4.05223 30.6592L4.03177 30.6693C3.7777 30.8117 3.49812 30.8269 3.25415 30.7556L17.5235 15.3985Z" fill="#FB434C"/>
</g>
<defs>
<filter id="filter0_d_1_709" x="-1.4729" y="0" width="34.9458" height="38.7972" filterUnits="userSpaceOnUse" color-interpolation-filters="sRGB">
<feFlood flood-opacity="0" result="BackgroundImageFix"/>
<feColorMatrix in="SourceAlpha" type="matrix" values="0 0 0 0 0 0 0 0 0 0 0 0 0 0 0 0 0 0 127 0" result="hardAlpha"/>
<feOffset dy="4"/>
<feGaussianBlur stdDeviation="2"/>
<feComposite in2="hardAlpha" operator="out"/>
<feColorMatrix type="matrix" values="0 0 0 0 0 0 0 0 0 0 0 0 0 0 0 0 0 0 0.25 0"/>
<feBlend mode="normal" in2="BackgroundImageFix" result="effect1_dropShadow_1_709"/>
<feBlend mode="normal" in="SourceGraphic" in2="effect1_dropShadow_1_709" result="shape"/>
</filter>
</defs>
</svg>
