<svg width="12" height="13" viewBox="0 0 12 13" fill="none" xmlns="http://www.w3.org/2000/svg">
<path fill-rule="evenodd" clip-rule="evenodd" d="M0.64 8.32007C0.993459 8.32007 1.28 8.6066 1.28 8.96007V10.2401C1.28 10.4098 1.34742 10.5725 1.46746 10.6926C1.58748 10.8126 1.75025 10.8801 1.92 10.8801H9.59999C9.76972 10.8801 9.93247 10.8127 10.0525 10.6926C10.1726 10.5725 10.24 10.4098 10.24 10.2401V8.96007C10.24 8.6066 10.5265 8.32007 10.88 8.32007C11.2335 8.32007 11.52 8.6066 11.52 8.96007V10.2401C11.52 10.7493 11.3177 11.2376 10.9576 11.5977C10.5976 11.9578 10.1092 12.1601 9.59999 12.1601H1.92C1.4108 12.1601 0.922419 11.9578 0.562342 11.5977C0.202291 11.2376 0 10.7493 0 10.2401V8.96007C0 8.6066 0.286535 8.32007 0.64 8.32007Z" fill="#00D390"/>
<path fill-rule="evenodd" clip-rule="evenodd" d="M2.10749 4.66743C2.35743 4.4175 2.76266 4.4175 3.01259 4.66743L5.76003 7.41489L8.50749 4.66743C8.75741 4.4175 9.16265 4.4175 9.41257 4.66743C9.66256 4.91735 9.66256 5.3226 9.41257 5.57252L6.21257 8.77252C5.96266 9.02244 5.55741 9.02244 5.30749 8.77252L2.10749 5.57252C1.85756 5.3226 1.85756 4.91735 2.10749 4.66743Z" fill="#00D390"/>
<path fill-rule="evenodd" clip-rule="evenodd" d="M5.76 0C6.11347 0 6.4 0.286541 6.4 0.64V8.32C6.4 8.67347 6.11347 8.96 5.76 8.96C5.40652 8.96 5.12 8.67347 5.12 8.32V0.64C5.12 0.286541 5.40652 0 5.76 0Z" fill="#00D390"/>
</svg>
